<svg xmlns="http://www.w3.org/2000/svg" xmlns:xlink="http://www.w3.org/1999/xlink" width="1200" height="1200" viewBox="0 0 1200 1200"><rect width="100%" height="100%" fill="#1A1A1A"></rect><g transform="translate(600 600) scale(0.69 0.69) rotate(0) translate(-600 -600)" style="fill:#FFFFFF"><svg fill="#FFFFFF" xmlns="http://www.w3.org/2000/svg" xmlns:xlink="http://www.w3.org/1999/xlink" viewBox="0 0 44 61" version="1.1" x="0px" y="0px"><title>154 -Audio to Audio- (Outline)</title><desc>Created with Sketch.</desc><g stroke="none" stroke-width="1" fill="none" fill-rule="evenodd"><g transform="translate(-486.000000, -2151.000000)" fill="#FFFFFF"><g transform="translate(486.000000, 2151.000000)"><path d="M35,49.004 L41,49.004 C41.5522847,49.004 42,48.5562847 42,48.004 L42,42.004 C42,41.4517153 41.5522847,41.004 41,41.004 L35,41.004 C34.4477153,41.004 34,41.4517153 34,42.004 L34,48.004 C34,48.5562847 34.4477153,49.004 35,49.004 Z M36,43.004 L40,43.004 L40,47.004 L36,47.004 L36,43.004 Z"></path><path d="M33,43.004 L43,43.004 C43.5522847,43.004 44,42.5562847 44,42.004 L44,28.004 C44,27.4517153 43.5522847,27.004 43,27.004 L33,27.004 C32.4477153,27.004 32,27.4517153 32,28.004 L32,42.004 C32,42.5562847 32.4477153,43.004 33,43.004 Z M34,29.004 L42,29.004 L42,41.004 L34,41.004 L34,29.004 Z"></path><path d="M34,29.004 L42,29.004 C42.5522847,29.004 43,28.5562847 43,28.004 L43,24.004 C43,23.4517153 42.5522847,23.004 42,23.004 L34,23.004 C33.4477153,23.004 33,23.4517153 33,24.004 L33,28.004 C33,28.5562847 33.4477153,29.004 34,29.004 Z M35,25.004 L41,25.004 L41,27.004 L35,27.004 L35,25.004 Z"></path><path d="M35,25.004 L41,25.004 C41.5522847,25.004 42,24.5562847 42,24.004 L42,10.004 C42,9.45171525 41.5522847,9.004 41,9.004 L35,9.004 C34.4477153,9.004 34,9.45171525 34,10.004 L34,24.004 C34,24.5562847 34.4477153,25.004 35,25.004 Z M36,11.004 L40,11.004 L40,23.004 L36,23.004 L36,11.004 Z"></path><path d="M35,15.0038 L41,15.0038 C41.5522847,15.0038 42,14.5560847 42,14.0038 C42,13.4515153 41.5522847,13.0038 41,13.0038 L35,13.0038 C34.4477153,13.0038 34,13.4515153 34,14.0038 C34,14.5560847 34.4477153,15.0038 35,15.0038 Z"></path><path d="M41,3.0038 L35,3.0038 C34.2012471,3.0038 33.7248673,3.8940596 34.1680202,4.55860592 C35.1549933,6.03865802 35.1549933,7.96894198 34.1680202,9.44899408 C33.7248673,10.1135404 34.2012471,11.0038 35,11.0038 L41,11.0038 C41.7987529,11.0038 42.2751327,10.1135404 41.8319798,9.44899408 C40.8450067,7.96894198 40.8450067,6.03865802 41.8319798,4.55860592 C42.2751327,3.8940596 41.7987529,3.0038 41,3.0038 Z M39.4114333,9.0038 L36.5885667,9.0038 C37.0148111,7.70574438 37.0148111,6.30185562 36.5885667,5.0038 L39.4114333,5.0038 C38.9851889,6.30185562 38.9851889,7.70574438 39.4114333,9.0038 Z"></path><path d="M38.4648162,2.0038 L39.1314829,3.0038 L36.8685171,3.0038 L37.5351838,2.0038 L38.4648162,2.0038 Z M37,0.0038 C36.6656468,0.0038 36.3534155,0.170901135 36.1679497,0.449099804 L34.1679497,3.4490998 C33.7249132,4.11365453 34.2013046,5.0038 35,5.0038 L41,5.0038 C41.7986954,5.0038 42.2750868,4.11365453 41.8320503,3.4490998 L39.8320503,0.449099804 C39.6465845,0.170901135 39.3343532,0.0038 39,0.0038 L37,0.0038 Z"></path><path d="M3,49.004 L9,49.004 C9.55228475,49.004 10,48.5562847 10,48.004 L10,42.004 C10,41.4517153 9.55228475,41.004 9,41.004 L3,41.004 C2.44771525,41.004 2,41.4517153 2,42.004 L2,48.004 C2,48.5562847 2.44771525,49.004 3,49.004 Z M4,43.004 L8,43.004 L8,47.004 L4,47.004 L4,43.004 Z"></path><path d="M1,43.004 L11,43.004 C11.5522847,43.004 12,42.5562847 12,42.004 L12,28.004 C12,27.4517153 11.5522847,27.004 11,27.004 L1,27.004 C0.44771525,27.004 0,27.4517153 0,28.004 L0,42.004 C0,42.5562847 0.44771525,43.004 1,43.004 Z M2,29.004 L10,29.004 L10,41.004 L2,41.004 L2,29.004 Z"></path><path d="M2,29.004 L10,29.004 C10.5522847,29.004 11,28.5562847 11,28.004 L11,24.004 C11,23.4517153 10.5522847,23.004 10,23.004 L2,23.004 C1.44771525,23.004 1,23.4517153 1,24.004 L1,28.004 C1,28.5562847 1.44771525,29.004 2,29.004 Z M3,25.004 L9,25.004 L9,27.004 L3,27.004 L3,25.004 Z"></path><path d="M3,25.004 L9,25.004 C9.55228475,25.004 10,24.5562847 10,24.004 L10,10.004 C10,9.45171525 9.55228475,9.004 9,9.004 L3,9.004 C2.44771525,9.004 2,9.45171525 2,10.004 L2,24.004 C2,24.5562847 2.44771525,25.004 3,25.004 Z M4,11.004 L8,11.004 L8,23.004 L4,23.004 L4,11.004 Z"></path><path d="M3,15.0038 L9,15.0038 C9.55228475,15.0038 10,14.5560847 10,14.0038 C10,13.4515153 9.55228475,13.0038 9,13.0038 L3,13.0038 C2.44771525,13.0038 2,13.4515153 2,14.0038 C2,14.5560847 2.44771525,15.0038 3,15.0038 Z"></path><path d="M9,3.0038 L3,3.0038 C2.20124706,3.0038 1.72486734,3.8940596 2.1680202,4.55860592 C3.15499327,6.03865802 3.15499327,7.96894198 2.1680202,9.44899408 C1.72486734,10.1135404 2.20124706,11.0038 3,11.0038 L9,11.0038 C9.79875294,11.0038 10.2751327,10.1135404 9.8319798,9.44899408 C8.84500673,7.96894198 8.84500673,6.03865802 9.8319798,4.55860592 C10.2751327,3.8940596 9.79875294,3.0038 9,3.0038 Z M7.4114333,9.0038 L4.5885667,9.0038 C5.0148111,7.70574438 5.0148111,6.30185562 4.5885667,5.0038 L7.4114333,5.0038 C6.9851889,6.30185562 6.9851889,7.70574438 7.4114333,9.0038 Z"></path><path d="M6.46481624,2.0038 L7.13148291,3.0038 L4.86851709,3.0038 L5.53518376,2.0038 L6.46481624,2.0038 Z M5,0.0038 C4.66564681,0.0038 4.35341548,0.170901135 4.16794971,0.449099804 L2.16794971,3.4490998 C1.72491322,4.11365453 2.20130462,5.0038 3,5.0038 L9,5.0038 C9.79869538,5.0038 10.2750868,4.11365453 9.83205029,3.4490998 L7.83205029,0.449099804 C7.64658452,0.170901135 7.33435319,0.0038 7,0.0038 L5,0.0038 Z"></path><path d="M35,48.0038 C35,51.3108825 32.307348,54.0038 29,54.0038 L14.9990714,54.0168004 C11.6922847,54.0168 9,51.3245153 9,48.0168 C9,47.4515153 8.55228475,47.0038 8,47.0038 L4,47.0038 C3.44771525,47.0038 3,47.4515153 3,48.0038 C3,54.6340847 8.38271525,60.0168 15,60.0168 L29.0009286,60.0037996 C35.6172847,60.0038 41,54.6210847 41,48.0038 C41,47.4515153 40.5522847,47.0038 40,47.0038 L36,47.0038 C35.4477153,47.0038 35,47.4515153 35,48.0038 Z M38.9503549,49.0038 C38.4468135,54.0490467 34.1752752,58.0038 29,58.0038 L14.9990714,58.0168004 C9.82022456,58.0168 5.54584759,54.0552516 5.04835602,49.0038 L7.06052197,49.0038 C7.54810144,52.9518837 10.9218438,56.0168 15,56.0168 L29.0009286,56.0037996 C33.0734063,56.0038 36.4443739,52.9451013 36.9378403,49.0038 L38.9503549,49.0038 Z"></path></g></g></g></svg></g></svg>